<svg class="w-6 h-6" width="24" height="24" viewBox="0 0 24 24" fill="none" xmlns="http://www.w3.org/2000/svg"><path d="M20 15V5C20 4.73478 19.8946 4.48051 19.707 4.29297C19.5429 4.12883 19.3276 4.02757 19.0986 4.00488L19 4H16C15.7348 4 15.4805 4.10543 15.293 4.29297C15.1054 4.48051 15 4.73478 15 5V11C15 11.2652 15.1054 11.5195 15.293 11.707C15.4571 11.8712 15.6724 11.9724 15.9014 11.9951L16.1973 12.0098C16.6553 12.0551 17.0858 12.2577 17.4141 12.5859C17.7891 12.961 18 13.4696 18 14V15C18 15.7957 17.6837 16.5585 17.1211 17.1211C16.5585 17.6837 15.7957 18 15 18V20C16.3261 20 17.5975 19.4728 18.5352 18.5352C19.4728 17.5975 20 16.3261 20 15ZM22 15C22 16.8565 21.263 18.6374 19.9502 19.9502C18.6374 21.263 16.8565 22 15 22C14.4696 22 13.961 21.7891 13.5859 21.4141C13.2109 21.039 13 20.5304 13 20V18C13 17.4696 13.2109 16.961 13.5859 16.5859C13.9142 16.2577 14.3447 16.0551 14.8027 16.0098L15.0986 15.9951C15.3276 15.9724 15.5429 15.8712 15.707 15.707C15.8946 15.5195 16 15.2652 16 15V14C15.2043 14 14.4415 13.6837 13.8789 13.1211C13.3163 12.5585 13 11.7957 13 11V5C13 4.20435 13.3163 3.44152 13.8789 2.87891C14.4415 2.3163 15.2044 2 16 2H19L19.2969 2.01465C19.9835 2.08291 20.6289 2.38671 21.1211 2.87891C21.6837 3.44152 22 4.20435 22 5V15Z" fill="#686583" style="fill-opacity:1;"/><path d="M9 15V5C9 4.73478 8.89457 4.48051 8.70703 4.29297C8.54289 4.12883 8.32763 4.02757 8.09863 4.00488L8 4H5C4.73478 4 4.48051 4.10543 4.29297 4.29297C4.10543 4.48051 4 4.73478 4 5V11L4.00488 11.0986C4.02757 11.3276 4.12883 11.5429 4.29297 11.707C4.45711 11.8712 4.67237 11.9724 4.90137 11.9951L5.19727 12.0098C5.65526 12.0551 6.08578 12.2577 6.41406 12.5859C6.78913 12.961 7 13.4696 7 14V15L6.98535 15.2969C6.91709 15.9835 6.61329 16.6289 6.12109 17.1211C5.55848 17.6837 4.79565 18 4 18V20C5.32608 20 6.59747 19.4728 7.53516 18.5352C8.41421 17.6561 8.93281 16.4838 8.99414 15.248L9 15ZM11 15L10.9912 15.3467C10.9055 17.077 10.181 18.7194 8.9502 19.9502C7.63744 21.263 5.85652 22 4 22C3.46957 22 2.96101 21.7891 2.58594 21.4141C2.21086 21.039 2 20.5304 2 20V18C2 17.4696 2.21086 16.961 2.58594 16.5859C2.91422 16.2577 3.34474 16.0551 3.80273 16.0098L4.09863 15.9951C4.32763 15.9724 4.54289 15.8712 4.70703 15.707C4.87117 15.5429 4.97243 15.3276 4.99512 15.0986L5 15V14C4.20435 14 3.44152 13.6837 2.87891 13.1211C2.3163 12.5585 2 11.7956 2 11V5C2 4.20435 2.3163 3.44152 2.87891 2.87891C3.44152 2.3163 4.20435 2 5 2H8L8.29688 2.01465C8.98351 2.08291 9.6289 2.38671 10.1211 2.87891C10.6837 3.44152 11 4.20435 11 5V15Z" fill="#686583" style="fill-opacity:1;"/></svg>